<svg width="800" height="800" viewBox="0 0 800 800" fill="none" xmlns="http://www.w3.org/2000/svg">
<path d="M300 200L400 100M400 100L500 200M400 100V433.333M233.341 333.333C202.278 333.333 186.747 333.333 174.495 338.407C158.16 345.173 145.174 358.16 138.408 374.497C133.333 386.747 133.333 402.27 133.333 433.333V593.333C133.333 630.67 133.333 649.327 140.6 663.587C146.991 676.13 157.182 686.35 169.727 692.74C183.973 700 202.633 700 239.897 700H560.12C597.383 700 616.017 700 630.263 692.74C642.807 686.35 653.017 676.13 659.407 663.587C666.667 649.34 666.667 630.7 666.667 593.437V433.333C666.667 402.27 666.663 386.747 661.59 374.497C654.823 358.16 641.847 345.173 625.513 338.407C613.26 333.333 597.73 333.333 566.667 333.333" stroke="white" stroke-width="66.6667" stroke-linecap="round" stroke-linejoin="round"/>
</svg>
