<svg width="800" height="800" viewBox="0 0 800 800" fill="none" xmlns="http://www.w3.org/2000/svg">
<g clip-path="url(#clip0_5_13)">
<path fill-rule="evenodd" clip-rule="evenodd" d="M336.5 611.249C179.25 611.249 51.7754 486 51.7754 331.25C51.7754 176.5 179.25 51.001 336.5 51.001C493.75 51.001 621.25 176.5 621.25 331.25C621.25 486 493.75 611.249 336.5 611.249ZM792.2 756.25L585.725 553C639.775 494.25 673 416.75 673 331.25C673 148.25 522.35 0 336.5 0C150.65 0 0 148.25 0 331.25C0 514 150.65 662.25 336.5 662.25C416.8 662.25 490.45 634.501 548.3 588.251L755.6 792.249C765.725 802.249 782.1 802.249 792.2 792.249C802.325 782.499 802.325 766.25 792.2 756.25Z" fill="white"/>
</g>
<defs>
<clipPath id="clip0_5_13">
<rect width="800" height="800" fill="white"/>
</clipPath>
</defs>
</svg>
