<svg width="800" height="800" viewBox="0 0 800 800" fill="none" xmlns="http://www.w3.org/2000/svg">
<path d="M683.333 153.633C665.085 131.553 642.166 113.795 616.228 101.639C590.29 89.4829 561.978 83.2308 533.333 83.3334C484.321 81.8493 436.604 99.2064 400 131.833C363.396 99.2064 315.679 81.8493 266.667 83.3334C238.022 83.2308 209.71 89.4829 183.772 101.639C157.834 113.795 134.915 131.553 116.667 153.633C84.9 192.167 51.6667 261.933 73.7 375.633C108.867 557.2 372.567 706.2 383.7 712.3C388.663 715.067 394.251 716.52 399.933 716.52C405.616 716.52 411.204 715.067 416.167 712.3C427.367 706.067 691.067 557.067 726.167 375.633C748.333 261.933 715.1 192.167 683.333 153.633ZM660.867 362.967C636 491.333 455.267 610.733 400 644.667C322.133 597.667 161.933 479.667 139.3 362.967C122.2 274.767 145.6 223.533 168.267 196.067C180.254 181.604 195.293 169.973 212.305 162.008C229.318 154.044 247.882 149.943 266.667 150C286.73 148.495 306.84 152.215 325.038 160.797C343.235 169.379 358.898 182.529 370.5 198.967C373.361 204.231 377.581 208.632 382.722 211.711C387.862 214.789 393.734 216.433 399.725 216.47C405.717 216.508 411.608 214.938 416.787 211.924C421.965 208.909 426.24 204.562 429.167 199.333C440.746 182.768 456.443 169.506 474.709 160.855C492.975 152.204 513.181 148.463 533.333 150C552.157 149.908 570.767 153.993 587.823 161.958C604.878 169.924 619.955 181.573 631.967 196.067C654.567 223.533 677.967 274.767 660.867 362.967Z" fill="white"/>
</svg>
